<svg width="244" height="47" viewBox="0 0 244 47" fill="none" xmlns="http://www.w3.org/2000/svg">
<path d="M235.225 38.3137C232.253 38.3137 229.879 37.3718 228.101 35.4882C226.35 33.6045 225.475 30.978 225.475 27.6086C225.475 25.3005 225.912 23.3107 226.788 21.6393C227.663 19.9413 228.844 18.6413 230.33 17.7393C231.842 16.8372 233.553 16.3862 235.463 16.3862C237.851 16.3862 239.761 17.0893 241.194 18.4954C242.653 19.875 243.383 21.825 243.383 24.3454C243.383 25.3535 243.21 26.2423 242.865 27.0117C242.547 27.7545 241.87 28.126 240.836 28.126H232.24C232.319 30.2219 232.797 31.7076 233.673 32.5831C234.575 33.4586 235.742 33.8964 237.175 33.8964C238.077 33.8964 238.912 33.7637 239.682 33.4984C240.451 33.2066 241.167 32.8086 241.831 32.3045C242.069 32.5168 242.255 32.8484 242.388 33.2994C242.547 33.7239 242.627 34.0821 242.627 34.3739C242.627 34.7984 242.321 35.329 241.711 35.9657C241.128 36.5759 240.279 37.1198 239.164 37.5974C238.077 38.0749 236.763 38.3137 235.225 38.3137ZM232.24 25.1015H236.259C236.71 25.1015 236.989 24.929 237.095 24.5842C237.228 24.2393 237.294 23.8148 237.294 23.3107C237.294 21.6127 237.082 20.4985 236.657 19.9678C236.259 19.4107 235.782 19.1321 235.225 19.1321C234.774 19.1321 234.323 19.3046 233.872 19.6495C233.42 19.9944 233.049 20.6046 232.757 21.4801C232.465 22.3291 232.293 23.5362 232.24 25.1015Z" fill="white"/>
<path d="M219.36 38.1944C218.06 38.1944 217.065 37.9954 216.375 37.5974C215.685 37.1995 215.34 36.5627 215.34 35.6872V22.873C215.34 22.024 215.102 21.374 214.624 20.923C214.146 20.4455 213.523 20.2067 212.754 20.2067C212.25 20.2067 211.706 20.3791 211.122 20.724C210.565 21.0424 210.14 21.4802 209.849 22.0373V33.6577C209.849 34.427 210.008 34.9842 210.326 35.3291C210.671 35.6474 211.241 35.8066 212.037 35.8066C212.037 36.6291 211.732 37.3454 211.122 37.9556H202.327C201.717 37.3454 201.412 36.6291 201.412 35.8066C202.208 35.8066 202.765 35.6474 203.083 35.3291C203.428 34.9842 203.601 34.427 203.601 33.6577V12.0884C203.601 11.4782 203.428 11.0006 203.083 10.6557C202.738 10.3108 202.022 10.1384 200.934 10.1384V8.50675C201.598 8.16186 202.367 7.84349 203.242 7.55165C204.145 7.25982 205.033 7.03431 205.909 6.87513C206.811 6.68941 207.554 6.59656 208.137 6.59656C208.748 6.59656 209.185 6.74248 209.451 7.03431C209.716 7.29962 209.849 7.7639 209.849 8.42716V16.2669L209.769 19.4506C210.459 18.5751 211.348 17.8322 212.435 17.222C213.523 16.6118 214.757 16.3067 216.136 16.3067C219.904 16.3067 221.787 18.27 221.787 22.1965V33.3393C221.787 34.6923 222.424 35.4883 223.697 35.727L223.737 36.8811C222.782 37.7566 221.323 38.1944 219.36 38.1944Z" fill="white"/>
<path d="M193.371 38.5526C191.434 38.5526 189.723 38.1148 188.237 37.2393C186.778 36.3638 185.624 35.1169 184.775 33.4985C183.953 31.8536 183.542 29.8904 183.542 27.6087C183.542 25.2475 183.993 23.2312 184.895 21.5598C185.797 19.8618 187.03 18.5751 188.596 17.6996C190.161 16.7976 191.925 16.3466 193.888 16.3466C195.931 16.3466 197.483 16.8374 198.545 17.819C199.606 18.7741 200.136 19.9547 200.136 21.3608C200.136 22.6343 199.818 23.6159 199.181 24.3057C198.544 24.9955 197.722 25.3404 196.714 25.3404C195.891 25.3404 195.202 25.0353 194.645 24.4251C194.087 23.8149 193.809 23.072 193.809 22.1965C193.809 21.5598 193.915 21.0425 194.127 20.6445C194.366 20.2465 194.658 19.9149 195.003 19.6496C194.737 19.4904 194.512 19.3976 194.326 19.371C194.167 19.318 194.008 19.2914 193.849 19.2914C193.345 19.2914 192.827 19.4904 192.297 19.8884C191.766 20.2863 191.315 20.9894 190.944 21.9976C190.599 23.0057 190.426 24.4118 190.426 26.2159C190.426 29.1343 190.851 31.1904 191.7 32.3842C192.549 33.5516 193.742 34.1353 195.281 34.1353C195.998 34.1353 196.714 34.0291 197.43 33.8169C198.173 33.6046 198.797 33.2995 199.301 32.9016C199.513 33.1669 199.685 33.4985 199.818 33.8965C199.977 34.2679 200.057 34.5995 200.057 34.8914C200.057 35.4485 199.752 36.0189 199.141 36.6026C198.558 37.1597 197.762 37.624 196.754 37.9954C195.746 38.3669 194.618 38.5526 193.371 38.5526Z" fill="white"/>
<path d="M160.403 37.9556C160.112 37.6638 159.873 37.3454 159.687 37.0005C159.528 36.6556 159.448 36.271 159.448 35.8465C160.244 35.8465 160.815 35.674 161.159 35.3291C161.504 34.9842 161.677 34.4271 161.677 33.6577V22.0373C161.677 21.3476 161.478 20.8435 161.08 20.5251C160.708 20.2067 160.019 20.0476 159.01 20.0476V18.2568C159.621 17.9119 160.39 17.5935 161.319 17.3017C162.274 17.0098 163.189 16.7843 164.065 16.6251C164.967 16.4394 165.656 16.3466 166.134 16.3466C166.691 16.3466 167.142 16.519 167.487 16.8639C167.858 17.2088 168.071 17.9517 168.124 19.0925C168.787 18.27 169.623 17.6068 170.631 17.1027C171.666 16.5986 172.859 16.3466 174.212 16.3466C176.07 16.3466 177.462 16.8241 178.391 17.7792C179.346 18.7078 179.824 20.2996 179.824 22.5547V33.4189C179.824 34.7189 180.46 35.4883 181.734 35.7271L181.774 36.8812C181.508 37.1465 181.084 37.3852 180.5 37.5975C179.917 37.7832 179.28 37.9291 178.59 38.0352C177.927 38.1414 177.303 38.1944 176.72 38.1944C175.579 38.1944 174.73 37.9822 174.173 37.5577C173.642 37.1332 173.377 36.4567 173.377 35.5281V23.1118C173.377 22.0241 173.138 21.268 172.66 20.8435C172.183 20.419 171.599 20.2067 170.909 20.2067C169.822 20.2067 168.906 20.6445 168.164 21.52V33.6577C168.164 34.4271 168.323 34.9842 168.641 35.3291C168.986 35.674 169.556 35.8465 170.352 35.8465C170.352 36.6424 170.047 37.3454 169.437 37.9556H160.403Z" fill="white"/>
<path d="M144.402 38.2341C142.412 38.2341 140.793 37.6902 139.546 36.6025C138.326 35.4882 137.716 34.0688 137.716 32.3443C137.716 30.6198 138.273 29.227 139.387 28.1658C140.528 27.1046 142.279 26.5739 144.64 26.5739C145.41 26.5739 146.219 26.6535 147.068 26.8127C147.917 26.9454 148.607 27.1576 149.137 27.4494V22.1566C149.137 21.0423 148.845 20.2729 148.262 19.8485C147.705 19.3974 147.015 19.1719 146.192 19.1719C145.317 19.1719 144.6 19.3842 144.043 19.8087C144.574 19.9944 144.959 20.2862 145.197 20.6842C145.436 21.0556 145.556 21.4668 145.556 21.9178C145.556 22.7933 145.237 23.4964 144.6 24.027C143.99 24.5311 143.234 24.7831 142.332 24.7831C141.324 24.7831 140.515 24.4913 139.905 23.9076C139.294 23.2974 138.989 22.5413 138.989 21.6393C138.989 20.7372 139.294 19.8883 139.905 19.0923C140.515 18.2699 141.457 17.5934 142.73 17.0628C144.03 16.5322 145.701 16.2668 147.744 16.2668C153.077 16.2668 155.743 18.376 155.743 22.5944V33.1402C155.743 34.4137 156.353 35.1831 157.574 35.4484V36.7219C157.229 37.2259 156.645 37.6106 155.823 37.8759C155 38.1147 154.205 38.2341 153.435 38.2341C151.631 38.2341 150.358 37.6106 149.615 36.3637C149.084 36.8412 148.381 37.279 147.506 37.6769C146.63 38.0484 145.595 38.2341 144.402 38.2341ZM146.988 35.0106C147.36 35.0106 147.744 34.9576 148.142 34.8515C148.54 34.7188 148.872 34.5596 149.137 34.3739V30.5137C148.872 30.328 148.527 30.1688 148.102 30.0362C147.705 29.9035 147.307 29.8372 146.909 29.8372C146.219 29.8372 145.622 30.0627 145.118 30.5137C144.614 30.9382 144.362 31.6147 144.362 32.5433C144.362 33.2596 144.6 33.8566 145.078 34.3341C145.556 34.7851 146.192 35.0106 146.988 35.0106Z" fill="white"/>
<path d="M116.522 37.9555C115.912 37.2923 115.606 36.4433 115.606 35.4086C116.508 35.4086 117.145 35.2627 117.517 34.9708C117.888 34.679 118.074 34.1617 118.074 33.4188V14.7148C118.074 13.972 117.888 13.4546 117.517 13.1628C117.145 12.8444 116.508 12.6852 115.606 12.6852C115.606 12.2342 115.686 11.7832 115.845 11.3322C116.004 10.8812 116.23 10.4965 116.522 10.1781H126.749C127.041 10.4965 127.253 10.8812 127.386 11.3322C127.545 11.7832 127.625 12.2342 127.625 12.6852C126.564 12.6852 125.794 12.8444 125.317 13.1628C124.839 13.4546 124.6 13.972 124.6 14.7148V34.5729H127.068C128.553 34.5729 129.707 33.9229 130.53 32.6229C131.379 31.2964 131.803 29.5188 131.803 27.2903H134.589C134.934 27.529 135.212 27.9801 135.425 28.6433C135.637 29.2801 135.796 29.9831 135.902 30.7525C136.008 31.5219 136.061 32.2249 136.061 32.8617C136.061 34.4535 135.783 35.7004 135.226 36.6025C134.669 37.5045 133.7 37.9555 132.321 37.9555H116.522Z" fill="white"/>
<mask id="mask0_2297_644" style="mask-type:alpha" maskUnits="userSpaceOnUse" x="102" y="6" width="12" height="32">
<path d="M108.502 13.5607C107.361 13.5607 106.445 13.2291 105.756 12.5658C105.092 11.876 104.761 10.9607 104.761 9.8199C104.761 8.70562 105.106 7.80358 105.795 7.11379C106.512 6.424 107.44 6.0791 108.581 6.0791C109.749 6.0791 110.664 6.424 111.327 7.11379C112.017 7.80358 112.362 8.70562 112.362 9.8199C112.362 10.9607 112.004 11.876 111.287 12.5658C110.597 13.2291 109.669 13.5607 108.502 13.5607ZM104.044 37.9555C103.753 37.6636 103.527 37.3453 103.368 37.0004C103.209 36.6555 103.129 36.2575 103.129 35.8065C103.899 35.8065 104.469 35.6473 104.84 35.329C105.212 34.9841 105.398 34.4137 105.398 33.6177V22.077C105.398 21.3872 105.225 20.8698 104.88 20.525C104.562 20.1801 103.859 20.0076 102.771 20.0076V18.2566C103.169 18.0178 103.779 17.7525 104.602 17.4607C105.424 17.1423 106.313 16.877 107.268 16.6648C108.25 16.4525 109.125 16.3464 109.894 16.3464C110.505 16.3464 110.942 16.4923 111.208 16.7842C111.473 17.0495 111.606 17.5137 111.606 18.177V33.6575C111.606 34.4535 111.805 35.0106 112.203 35.329C112.601 35.6473 113.184 35.8065 113.954 35.8065C113.954 36.2575 113.874 36.6555 113.715 37.0004C113.556 37.3453 113.33 37.6636 113.038 37.9555H104.044Z" fill="white"/>
</mask>
<g mask="url(#mask0_2297_644)">
<path d="M108.502 13.5607C107.361 13.5607 106.445 13.2291 105.756 12.5658C105.092 11.876 104.761 10.9607 104.761 9.8199C104.761 8.70562 105.106 7.80358 105.795 7.11379C106.512 6.424 107.44 6.0791 108.581 6.0791C109.749 6.0791 110.664 6.424 111.327 7.11379C112.017 7.80358 112.362 8.70562 112.362 9.8199C112.362 10.9607 112.004 11.876 111.287 12.5658C110.597 13.2291 109.669 13.5607 108.502 13.5607ZM104.044 37.9555C103.753 37.6636 103.527 37.3453 103.368 37.0004C103.209 36.6555 103.129 36.2575 103.129 35.8065C103.899 35.8065 104.469 35.6473 104.84 35.329C105.212 34.9841 105.398 34.4137 105.398 33.6177V22.077C105.398 21.3872 105.225 20.8698 104.88 20.525C104.562 20.1801 103.859 20.0076 102.771 20.0076V18.2566C103.169 18.0178 103.779 17.7525 104.602 17.4607C105.424 17.1423 106.313 16.877 107.268 16.6648C108.25 16.4525 109.125 16.3464 109.894 16.3464C110.505 16.3464 110.942 16.4923 111.208 16.7842C111.473 17.0495 111.606 17.5137 111.606 18.177V33.6575C111.606 34.4535 111.805 35.0106 112.203 35.329C112.601 35.6473 113.184 35.8065 113.954 35.8065C113.954 36.2575 113.874 36.6555 113.715 37.0004C113.556 37.3453 113.33 37.6636 113.038 37.9555H104.044Z" fill="white"/>
<rect x="101.761" y="2.68201" width="12.6623" height="11.7578" fill="#F9881F"/>
</g>
<path d="M81.5459 45.5167C81.2541 45.2249 81.0153 44.9065 80.8296 44.5616C80.6704 44.2167 80.5908 43.832 80.5908 43.4075C81.3867 43.4075 81.8908 43.2351 82.1031 42.8902C82.3418 42.5453 82.4612 41.9881 82.4612 41.2188V22.1566C82.4612 21.4668 82.2623 20.9627 81.8643 20.6444C81.4929 20.326 80.8031 20.1668 79.7949 20.1668V18.376C80.3786 18.0311 81.0684 17.7128 81.8643 17.4209C82.6867 17.1291 83.4827 16.9036 84.252 16.7444C85.0214 16.5587 85.6316 16.4658 86.0826 16.4658C86.6133 16.4658 87.051 16.5719 87.3959 16.7842C87.7673 16.9964 88.0326 17.4209 88.1918 18.0576C88.802 17.474 89.5183 17.0628 90.3408 16.824C91.1898 16.5852 92.0785 16.4658 93.0071 16.4658C94.4132 16.4658 95.7265 16.8372 96.9469 17.5801C98.1673 18.2964 99.1489 19.3842 99.8918 20.8434C100.661 22.3025 101.046 24.1597 101.046 26.4148C101.046 28.9351 100.555 31.0974 99.5734 32.9015C98.6183 34.679 97.3183 36.0453 95.6734 37.0004C94.0551 37.929 92.251 38.3933 90.2612 38.3933C90.049 38.3933 89.8102 38.38 89.5449 38.3535C89.2796 38.3535 89.001 38.3402 88.7092 38.3137V41.2188C88.7092 41.9881 88.9877 42.5453 89.5449 42.8902C90.102 43.2351 90.6724 43.4075 91.2561 43.4075C91.2561 44.2034 90.951 44.9065 90.3408 45.5167H81.5459ZM90.2214 35.4882C91.3092 35.4882 92.2377 34.8514 93.0071 33.578C93.7765 32.3045 94.1612 30.2351 94.1612 27.3698C94.1612 25.5392 93.9622 24.0933 93.5642 23.0321C93.1928 21.9444 92.6755 21.175 92.0122 20.724C91.349 20.2464 90.6194 20.0076 89.8234 20.0076C89.399 20.0076 89.0275 20.0872 88.7092 20.2464V35.0902C89.1602 35.3555 89.6643 35.4882 90.2214 35.4882Z" fill="white"/>
<path d="M74.0895 38.1943C73.1078 38.1943 72.2589 38.0616 71.5425 37.7963C70.8528 37.5045 70.5079 36.9474 70.5079 36.1249V22.8729C70.5079 22.024 70.2691 21.374 69.7915 20.9229C69.3405 20.4454 68.7303 20.2066 67.9609 20.2066C67.5364 20.2066 67.0987 20.2862 66.6477 20.4454C66.2232 20.6046 65.8385 20.8434 65.4936 21.1617C65.5201 21.2678 65.5334 21.374 65.5334 21.4801C65.5334 21.5597 65.5334 21.6525 65.5334 21.7587V33.6576C65.5334 34.427 65.6926 34.9841 66.0109 35.329C66.3293 35.6474 66.8334 35.8065 67.5232 35.8065C67.5232 36.231 67.4303 36.629 67.2446 37.0004C67.0854 37.3453 66.8599 37.6637 66.5681 37.9555H58.0916C57.8263 37.6637 57.6008 37.3453 57.4151 37.0004C57.2559 36.629 57.1763 36.231 57.1763 35.8065C57.8661 35.8065 58.3436 35.6474 58.6089 35.329C58.9008 34.9841 59.0467 34.427 59.0467 33.6576V22.8729C59.0467 22.024 58.7946 21.374 58.2906 20.9229C57.813 20.4454 57.2293 20.2066 56.5396 20.2066C56.0355 20.2066 55.5181 20.326 54.9875 20.5648C54.4569 20.8036 54.0059 21.1485 53.6345 21.5995V33.6576C53.6345 34.427 53.7671 34.9841 54.0324 35.329C54.3243 35.6474 54.8018 35.8065 55.4651 35.8065C55.4651 36.629 55.1467 37.3453 54.51 37.9555H45.8743C45.5825 37.6637 45.3437 37.3453 45.158 37.0004C44.9988 36.629 44.9192 36.231 44.9192 35.8065C45.7151 35.8065 46.2855 35.6474 46.6304 35.329C46.9753 34.9841 47.1478 34.427 47.1478 33.6576V21.9974C47.1478 21.3076 46.9488 20.8036 46.5508 20.4852C46.1794 20.1668 45.4896 20.0076 44.4814 20.0076V18.2566C45.0916 17.8852 45.861 17.5536 46.7896 17.2617C47.7447 16.9699 48.66 16.7444 49.5355 16.5852C50.4375 16.3995 51.1273 16.3066 51.6049 16.3066C52.1355 16.3066 52.5732 16.4791 52.9181 16.824C53.2896 17.1424 53.5283 17.8189 53.6345 18.8536C54.3243 18.0842 55.1865 17.474 56.2212 17.023C57.2824 16.5454 58.4763 16.3066 59.8028 16.3066C62.4559 16.3066 64.1803 17.1954 64.9762 18.973C65.666 18.124 66.5548 17.474 67.6426 17.023C68.7568 16.5454 69.9905 16.3066 71.3436 16.3066C73.2538 16.3066 74.6731 16.7709 75.6017 17.6995C76.5568 18.6281 77.0344 19.9811 77.0344 21.7587V33.6576C77.0344 34.2678 77.2068 34.7321 77.5517 35.0504C77.8966 35.3688 78.3741 35.5943 78.9843 35.727V36.881C78.5068 37.3055 77.8833 37.6371 77.1139 37.8759C76.3446 38.0882 75.3364 38.1943 74.0895 38.1943Z" fill="white"/>
<path d="M32.6679 38.473C30.7843 38.473 29.1128 38.075 27.6537 37.2791C26.1945 36.4567 25.0537 35.2628 24.2312 33.6975C23.4353 32.1057 23.0374 30.1424 23.0374 27.8077C23.0374 25.3139 23.4618 23.218 24.3108 21.52C25.1598 19.8221 26.3404 18.5353 27.8526 17.6598C29.3649 16.7843 31.1026 16.3466 33.0659 16.3466C34.9761 16.3466 36.6475 16.7578 38.0801 17.5802C39.5393 18.4027 40.6669 19.6231 41.4628 21.2414C42.2852 22.8333 42.6964 24.8098 42.6964 27.171C42.6964 29.6383 42.272 31.721 41.423 33.4189C40.574 35.0903 39.3934 36.3505 37.8812 37.1995C36.3689 38.0485 34.6312 38.473 32.6679 38.473ZM32.9863 35.6077C33.5434 35.6077 34.021 35.4087 34.4189 35.0108C34.8434 34.6128 35.1618 33.8832 35.374 32.822C35.6128 31.7342 35.7322 30.1689 35.7322 28.1261C35.7322 25.6322 35.6128 23.7486 35.374 22.4751C35.1353 21.1751 34.7904 20.2996 34.3393 19.8486C33.8883 19.3976 33.3577 19.1721 32.7475 19.1721C32.1904 19.1721 31.6996 19.371 31.2751 19.769C30.8506 20.1669 30.519 20.9098 30.2802 21.9976C30.0679 23.0853 29.9618 24.6639 29.9618 26.7332C29.9618 29.2006 30.0812 31.071 30.32 32.3444C30.5853 33.6179 30.9434 34.4801 31.3945 34.9312C31.8455 35.3822 32.3761 35.6077 32.9863 35.6077Z" fill="white"/>
<path d="M13.4988 38.5127C11.2437 38.5127 9.1478 37.9821 7.21107 36.9208C5.27434 35.8596 3.72231 34.2545 2.55497 32.1056C1.38763 29.9301 0.803955 27.2107 0.803955 23.9474C0.803955 20.8168 1.3213 18.2036 2.35599 16.1077C3.41721 14.0118 4.87639 12.4332 6.73352 11.372C8.61719 10.2842 10.7927 9.74036 13.26 9.74036C13.8437 9.74036 14.507 9.81995 15.2498 9.97913C15.9927 10.1383 16.6427 10.3506 17.1998 10.6159C17.4651 10.4832 17.8233 10.3638 18.2743 10.2577C18.7253 10.125 19.1763 10.0057 19.6273 9.89954C20.1049 9.79342 20.4763 9.74036 20.7416 9.74036C21.0865 10.5893 21.3386 11.5975 21.4977 12.7648C21.6569 13.9056 21.763 15.0465 21.8161 16.1873C21.8692 17.3015 21.8957 18.2566 21.8957 19.0526H17.3988C17.1865 17.3281 16.709 15.922 15.9661 14.8342C15.2498 13.7465 14.308 13.2026 13.1406 13.2026C11.6019 13.2026 10.3284 13.9322 9.32024 15.3913C8.33861 16.8505 7.8478 19.2383 7.8478 22.5546C7.8478 25.2872 8.21923 27.476 8.96208 29.1209C9.70493 30.7392 10.6866 31.9066 11.907 32.6229C13.1274 33.3127 14.4406 33.6576 15.8467 33.6576C17.0671 33.6576 18.1018 33.4321 18.9508 32.9811C19.7998 32.5035 20.3967 32.0127 20.7416 31.5086C21.0865 31.7474 21.3518 32.1188 21.5375 32.6229C21.7498 33.1005 21.8559 33.5249 21.8559 33.8964C21.8559 34.5066 21.5243 35.1831 20.861 35.9259C20.2243 36.6423 19.2824 37.2525 18.0355 37.7565C16.8151 38.2606 15.3029 38.5127 13.4988 38.5127Z" fill="white"/>
</svg>
